<svg width="407" height="282" viewBox="0 0 407 282" fill="none" xmlns="http://www.w3.org/2000/svg">
<path d="M44 60.6957L63.971 82L97 47" stroke="#8CBAFF" stroke-width="10" stroke-linecap="round"/>
<path d="M44 136.696L63.971 158L97 123" stroke="#8CBAFF" stroke-width="10" stroke-linecap="round"/>
<path d="M44 213.696L63.971 235L97 200" stroke="#8CBAFF" stroke-width="10" stroke-linecap="round"/>
<path d="M129 64H204" stroke="#8CBAFF" stroke-width="10" stroke-linecap="round"/>
<path d="M129 80H204" stroke="#8CBAFF" stroke-width="10" stroke-linecap="round"/>
<path d="M129 130H204" stroke="#8CBAFF" stroke-width="10" stroke-linecap="round"/>
<path d="M129 208H204" stroke="#8CBAFF" stroke-width="10" stroke-linecap="round"/>
<path d="M129 148H167" stroke="#8CBAFF" stroke-width="10" stroke-linecap="round"/>
<path d="M129 229H154" stroke="#8CBAFF" stroke-width="10" stroke-linecap="round"/>
<path d="M175 229H200" stroke="#8CBAFF" stroke-width="10" stroke-linecap="round"/>
<rect x="5" y="5" width="241" height="272" rx="38" stroke="#9DC6FF" stroke-width="10"/>
<path fill-rule="evenodd" clip-rule="evenodd" d="M287 39H306V56H306V66.7085C316.799 68.2785 327.118 72.1434 336.201 78.0398C337.908 79.1478 339.562 80.3218 341.16 81.5578L349.435 73.2825L349.566 73.4133L362.207 60.7721L374.228 72.7929L360.793 86.2279L360.662 86.0971L353.299 93.4597C355.883 96.673 358.184 100.105 360.172 103.722C364.012 110.709 366.603 118.24 367.864 126H380H387.5H397V145H387.5H380H368.284C367.227 153.993 364.395 162.733 359.915 170.741C357.989 174.184 355.778 177.455 353.31 180.527L347.136 186.701L346.929 186.908L354 193.979L354.207 193.772L366.228 205.793L352.793 219.228L342.107 208.542L341.899 208.749L331.772 198.621C324.11 202.868 315.719 205.754 307 207.139V218V235H288V218V207.766C280.638 207.089 273.396 205.346 266.525 202.575L262.955 210.797C267.828 212.763 272.866 214.269 278 215.304V218V235V245H288H307H317V235V218V214.139C321.203 213.025 325.31 211.594 329.281 209.858L333.701 214.278L345.722 226.299L352.793 233.37L359.864 226.299L373.299 212.864L380.37 205.793L373.299 198.722L361.278 186.701L360.595 186.018C363.383 182.551 365.88 178.858 368.055 174.972C371.588 168.657 374.21 161.938 375.872 155H380H397H407V145V126V116H397H380H375.089C373.485 110.314 371.227 104.795 368.343 99.5489C367.554 98.1123 366.72 96.7016 365.844 95.3185L367.864 93.299L381.299 79.864L388.37 72.7929L381.299 65.7218L369.278 53.701L362.207 46.63L355.136 53.701L341.701 67.1361L339.418 69.4194C332.166 64.9918 324.264 61.6861 316 59.6029V56V39V29H306H287H277V39V56V58.9039C272.411 59.8866 267.901 61.2467 263.521 62.9771L267.028 71.2246C273.439 68.6919 280.163 67.0519 287 66.3329V56H287V39ZM296 141C298.761 141 301 138.761 301 136C301 133.239 298.761 131 296 131C293.239 131 291 133.239 291 136C291 138.761 293.239 141 296 141ZM296 151C304.284 151 311 144.284 311 136C311 127.716 304.284 121 296 121C287.716 121 281 127.716 281 136C281 144.284 287.716 151 296 151Z" fill="#9DC6FF"/>
</svg>
