<svg width="430" height="420" viewBox="0 0 430 420" fill="none" xmlns="http://www.w3.org/2000/svg">
<g filter="url(#filter0_ii)">
<path d="M353.797 100.946C352.533 98.49 351.01 99.4466 349.827 98.8019C349.786 98.9922 349.746 99.1836 349.706 99.3739C350.927 99.843 352.147 100.312 353.797 100.946ZM404.649 20.5923C403.257 21.1464 401.651 19.7323 400.179 21.2291C401.884 22.5481 403.224 21.0257 404.649 20.5923ZM410.16 21.4172C408.96 19.553 406.55 19.2343 405.135 20.5128C406.668 22.6904 408.545 20.6934 410.16 21.4172ZM275.761 80.7441C273.827 79.0716 271.806 78.5832 269.532 78.645C269.949 79.0888 270.229 79.3886 270.514 79.6946C270.422 80.1593 269.678 79.6437 269.855 80.5144C271.791 81.5808 273.742 80.4106 275.761 80.7441ZM404.644 62.6646C403.399 62.3235 402.02 62.7679 401.129 62.306C399.041 61.2275 398.158 62.9839 396.877 64.3612C400.263 66.6003 403.436 65.9053 404.644 62.6646ZM346.772 88.7699C347.088 89.9967 347.826 90.0281 348.196 90.7048C348.119 91.2768 347.694 91.7489 347.879 92.5806C349.958 92.514 351.928 93.1341 353.913 94.0114C355.456 94.6939 357.121 95.7775 358.845 94.6269C358.964 94.5475 359.178 94.5487 359.092 94.2768C358.777 93.9708 358.493 93.694 358.053 93.2673C359.529 93.3473 358.885 91.9475 358.615 91.8208C357.668 91.3736 357.659 90.3979 357.56 89.2492C358.402 89.5269 358.876 88.4768 359.616 88.1802C355.362 88.1853 351.154 89.0026 346.772 88.7699ZM401.904 11.2346C406.743 11.5781 411.471 12.4033 416.129 13.9931C417.263 14.3793 418.247 15.3083 419.443 15.4689C419.928 15.5346 419.94 16.2919 419.974 16.9162C420.029 17.8979 419.626 18.5079 419.093 18.8544C417.177 20.1038 415.383 22.1679 413.009 20.7967C412.941 20.7577 412.771 21.0456 412.538 21.303C413.267 22.2235 414.236 22.0695 415.02 22.3802C415.679 22.6409 416.128 23.2176 416.673 23.6174C417.208 24.0099 417.296 25.2002 416.811 25.4357C416.036 25.814 415.609 26.5105 415.656 27.3642C415.733 28.7764 416.894 28.0455 417.449 28.655C417.62 28.8428 417.963 28.7366 418.31 28.7755C418.221 30.0048 417.88 30.9244 417.078 31.554C417.413 31.7575 417.597 31.8696 417.797 31.9915C417.742 32.0867 417.705 32.2062 417.641 32.2526C415.652 33.6825 413.681 34.8503 411.376 33.3047C409.817 32.2613 405.032 32.563 403.141 33.5453C401.675 32.0958 401.153 31.9704 398.506 32.503C400.088 35.4037 402.524 33.5114 404.356 34.7925C404.244 36.284 402.869 35.5796 402.447 36.8371C407.766 38.1109 413.179 38.1285 418.633 40.1938C419.166 41.0899 418.617 42.7657 419.125 43.8302C414.107 44.9124 409.023 42.9885 403.948 43.6744C403.609 45.0111 403.763 46.0891 404.659 45.7839C406.605 45.1211 408.466 45.929 410.326 46.1552C412.735 46.4483 415.2 46.5462 417.622 47.5149C417.711 48.5088 418.112 49.7526 417.818 50.4027C417.187 51.7895 416.34 53.3459 415.309 53.9328C414.415 54.4417 413.148 53.6641 412.04 53.5352C407.15 52.9685 402.266 52.63 397.36 54.3024C398.057 55.8156 398.057 55.8302 399.099 55.8408C402.232 55.8714 405.339 55.4655 408.459 55.112C410.626 54.8661 413.076 54.9385 414.917 57.494C415.551 58.3718 416.601 58.6214 417.179 59.6993C415.898 61.9912 413.936 61.7541 412.151 62.034C409.821 62.3994 407.443 62.0697 405.088 62.9486C406.794 63.7444 408.256 65.3353 410.191 65.2054C412.208 65.0681 412.944 67.8032 414.38 68.9991C414.562 69.1515 414.569 69.8161 414.154 70.0699C412.985 70.7825 412.899 73.0131 411.284 73.2831C412.282 74.7292 413.182 74.6911 414.131 74.3224C414.989 73.9892 415.863 74.1901 416.363 75.0863C417.176 76.5434 416.742 77.5179 415.433 78.1513C414.508 78.5992 413.425 78.502 412.633 79.5218C414.42 81.7785 416.996 80.4691 418.953 82.5733C418.991 83.0013 419.061 83.7696 419.136 84.6038C416.555 86.0205 413.834 86.3385 411.035 86.6797C407.51 87.109 404.002 86.6077 400.503 87.0004C395.743 87.5349 390.975 87.2634 386.212 87.4516C384.352 87.5254 382.546 88.3309 380.666 88.3474C379.21 88.3589 377.786 88.0886 376.411 87.5391C375.488 87.1699 374.732 87.8104 373.899 87.9204C370.747 88.3312 367.607 88.6896 364.457 87.9017C364.052 87.8006 363.622 87.8885 363.032 87.8888C365.404 89.5953 365.922 90.8366 365.668 93.9952C364.933 94.3418 363.965 93.7092 363.317 94.946C365.027 96.3174 367.181 96.7545 368.402 99.3175C366.824 100.775 365.258 101.549 363.183 101.129C364.805 103.714 367.723 103.863 368.167 107.525C366.223 108.638 364.126 107.957 362.161 108.433C358.483 109.327 355.103 107.479 351.61 106.771C350.645 106.575 349.892 107.296 348.967 107.079C348.032 106.86 347.093 107.031 346.205 106.24C345.138 105.289 344.103 106.655 343.017 106.732C342.369 106.78 341.662 107.012 340.977 107.015C337.656 107.023 334.357 107.443 331.051 107.805C329.9 107.931 328.675 107.851 327.509 107.793C324.632 107.648 321.913 109.027 318.942 108.594C315.921 108.153 312.759 109.057 309.657 109.755C306.117 110.551 302.5 111.243 298.85 111.093C297.111 111.021 295.444 112.118 293.64 112C292.356 111.916 291.078 112.139 289.819 111.525C287.924 110.599 285.943 111.209 284.004 111.077C281.352 110.896 279.208 109.471 277.464 106.755C277.126 106.23 276.602 105.934 276.104 105.478C276.311 105.064 276.391 104.676 277.042 104.649C278.573 104.584 280.028 104.862 281.54 105.176C285.565 106.013 289.655 105.758 293.718 105.633C294.277 105.616 294.853 105.962 295.637 105.475C293.912 104.328 292.171 104.234 290.516 103.986C288.06 103.619 285.553 103.278 283.108 103.564C278.566 104.095 274.024 103.638 269.495 103.996C267.159 104.181 264.841 104.847 262.483 104.829C261.265 104.819 258.704 102.076 258.461 100.466C258.342 99.688 258.709 99.4037 259.184 99.0133C260.723 97.7494 262.382 97.5513 264.192 97.7311C264.044 94.5019 261.579 96.0783 260.882 94.2286C260.57 92.4043 262.167 91.7683 262.595 90.1987C261.888 89.5806 261.002 89.5907 260.701 88.3152C260.908 87.5297 261.952 87.1269 261.451 85.821C261.874 85.7245 262.22 85.6463 262.523 85.5767C262.936 84.3558 262.166 83.6 261.887 82.9415C260.978 80.7967 261.467 78.1636 260.423 76.1383C260.362 76.0188 260.424 75.6578 260.517 75.5322C262.087 73.4048 260.915 71.3064 260.347 69.3919C258.976 64.7765 258.01 60.0524 258.459 55.0815C258.772 51.6131 258.681 48.1728 258.724 44.7179C258.763 41.4447 258.809 38.1666 258.711 34.8983C258.543 29.169 258.829 23.4652 259.058 17.7565C259.071 17.4016 259.095 16.9663 259.244 16.7162C260.588 14.4682 260.344 11.0353 262.243 9.18346C262.412 9.01755 262.312 8.32488 262.649 8.07354C263.146 8.57094 263.103 8.57096 263.105 10.2941C263.106 11.2246 263.283 12.1538 263.382 13.0928C264.753 12.4228 265.821 11.1432 267.57 11.628C269.03 12.0323 270.882 11.7146 272.088 9.74836C269.101 8.99815 266.878 8.74649 264.737 6.32037C264.785 4.88985 265.713 5.03224 266.328 4.7613C269.161 3.51763 272.12 3.53 275.041 3.429C279.48 3.2726 283.925 3.44304 288.365 3.36592C292.341 3.29748 296.317 3.0559 300.294 2.94966C301.488 2.91755 302.562 2.14765 303.7 1.84116C306.421 1.10852 309.071 1.64787 311.732 1.65794C316.089 1.67596 320.403 0.715931 324.743 0.757137C328.237 0.790086 331.715 0.630383 335.201 0.440168C336.478 0.370221 337.856 0.550231 339.183 0.703435C342.031 1.03295 344.84 -0.569202 347.678 0.279836C349.74 0.898654 351.792 -0.0788832 353.876 0.615535C355.869 1.2795 357.916 0.131208 359.964 0.230508C363.772 0.417014 367.573 0.335242 371.383 0.996142C373.355 1.33815 375.487 0.430083 377.518 0.735496C382.461 1.48016 387.44 1.27356 392.391 1.69383C396.118 2.01207 398.874 4.66847 402.102 6.08324C403.5 6.69496 403.532 8.42912 402.432 9.84048C402.178 10.1662 401.775 10.4176 401.904 11.2346Z" fill="#ECF4FF"/>
<path d="M425.327 22.4546C426.812 21.4053 429.016 22.5143 429.347 24.2301C429.46 24.8252 429.176 25.1716 428.918 25.5498C428.62 25.984 428.38 25.9426 427.956 25.7367C426.764 25.1554 426.34 23.5787 425.327 22.4546Z" fill="#ECF4FF"/>
<path d="M425.941 32.2632C424.052 31.4931 423.261 30.0324 423.728 28.3591C426.433 29.3606 426.433 29.3606 425.941 32.2632Z" fill="#ECF4FF"/>
<path d="M2.2239 417.62C2.39346 419.428 1.16548 419.267 0.523736 419.96C0.365306 419.494 -0.118512 419.16 0.326745 418.529C0.842213 417.798 1.3372 417.032 2.2239 417.62Z" fill="#ECF4FF"/>
</g>
<defs>
<filter id="filter0_ii" x="0.143066" y="-3.97144" width="429.229" height="433.932" filterUnits="userSpaceOnUse" color-interpolation-filters="sRGB">
<feFlood flood-opacity="0" result="BackgroundImageFix"/>
<feBlend mode="normal" in="SourceGraphic" in2="BackgroundImageFix" result="shape"/>
<feColorMatrix in="SourceAlpha" type="matrix" values="0 0 0 0 0 0 0 0 0 0 0 0 0 0 0 0 0 0 127 0" result="hardAlpha"/>
<feOffset dy="10"/>
<feGaussianBlur stdDeviation="5"/>
<feComposite in2="hardAlpha" operator="arithmetic" k2="-1" k3="1"/>
<feColorMatrix type="matrix" values="0 0 0 0 1 0 0 0 0 1 0 0 0 0 1 0 0 0 1 0"/>
<feBlend mode="normal" in2="shape" result="effect1_innerShadow"/>
<feColorMatrix in="SourceAlpha" type="matrix" values="0 0 0 0 0 0 0 0 0 0 0 0 0 0 0 0 0 0 127 0" result="hardAlpha"/>
<feOffset dy="-4"/>
<feGaussianBlur stdDeviation="5"/>
<feComposite in2="hardAlpha" operator="arithmetic" k2="-1" k3="1"/>
<feColorMatrix type="matrix" values="0 0 0 0 0.554205 0 0 0 0 0.659452 0 0 0 0 0.804167 0 0 0 0.25 0"/>
<feBlend mode="normal" in2="effect1_innerShadow" result="effect2_innerShadow"/>
</filter>
</defs>
</svg>
